<svg width="800" height="600" xmlns="http://www.w3.org/2000/svg">
 <g id="Layer_1">
  <title>Layer 1</title>
  <rect id="svg_2" height="86.66631" width="94.99961" y="230.66692" x="351.33034" stroke="#000" fill="#aaff56"/>
  <rect id="svg_3" height="69.99972" width="28.33322" y="59.66765" x="512.9963" stroke="#000" fill="#ffaa56"/>
  <rect id="svg_4" height="73.33303" width="33.3332" y="56.66766" x="564.99607" stroke="#000" fill="#ff56aa"/>
  <rect id="svg_5" height="99.99959" width="43.33316" y="57.33426" x="148.66442" stroke="#000" fill="#ffaa56"/>
  <rect id="svg_6" height="89.99963" width="36.66652" y="433.33279" x="149.99776" stroke="#000" fill="#56aaff"/>
  <rect id="svg_7" height="96.66627" width="36.66652" y="423.66623" x="236.99719" stroke="#000" fill="#ffaa56"/>
  <rect id="svg_8" height="71.66638" width="41.6665" y="215.66694" x="564.32949" stroke="#000" fill="#ffaa56"/>
  <rect id="svg_9" height="96.66627" width="44.99982" y="433.33282" x="483.32964" stroke="#000" fill="#ff56aa"/>
  <path id="svg_13" d="m201.33187,111.99899" opacity="NaN" stroke="#000" fill="none"/>
  <path id="svg_15" d="m191.99855,75.99908c0,0 224.03516,0 224.00043,-1.3326c0.03473,1.3326 2.66568,107.999 2.66568,109.33233c0,1.33333 -49.40523,0 -50.66556,-1.3326c1.26033,1.3326 1.33235,-77.34481 0,-78.66647c0,1.3326 -150.67318,1.3326 -151.99963,0c1.30877,0 1.33235,100.44549 0,99.99976c0,0.31884 -134.67433,-0.00073 -135.99967,0c1.32576,0 1.33235,165.55427 0,163.9996c0,1.28976 629.35241,-1.33406 629.3318,0c0.01173,0 -0.00098,33.81342 0,33.33325c0,0.42309 -625.33842,-0.00073 -626.66514,0c1.32667,0 1.33235,148.04783 0,147.99964c0,0.20919 333.74153,-1.33406 333.33252,0c0.3215,0 -0.00098,-74.67717 0,-75.99981c0,1.32067 69.34476,1.3326 69.33316,0" opacity="NaN" stroke="#000" fill="none"/>
  <path id="svg_16" d="m511.99777,91.99904l-73.33218,-1.3326l0,106.66641l-203.9995,0l0,142.66632l469.33219,0l0,-35.99991l-227.99944,-1.33333l0,-55.99986l-31.99992,0" opacity="NaN" stroke="#000" fill="none"/>
  <path id="svg_17" d="m581.33094,127.99896l-1.33235,40.00064l-283.99931,-1.33333l0,-110.6664l-47.99988,-1.33333l0,169.33292l-190.6662,0l0,93.33311l253.33272,0l0,195.99952l86.66646,0l0,-198.66618" opacity="NaN" stroke="#000" fill="none"/>
  <path id="svg_18" d="m166.66528,435.9982c0,0 0,-164.00502 -1.33235,-165.3322c1.33235,1.32718 -128.17062,1.3326 -129.33302,0c1.22126,0 1.33235,-209.54695 0,-210.66615c0,1.17975 94.67412,1.3326 93.33311,0c1.33235,0 1.33235,29.604 0,29.33326c0,0.12032 -58.81018,-0.00073 -59.99985,0c1.1962,0 1.33235,90.70673 -1.33333,90.66645c1.33333,0.00908 53.33223,-0.00073 51.99987,0c1.33235,0 1.33235,110.6737 0,109.33307c0,1.3326 232.09422,1.3326 231.99943,0" opacity="NaN" stroke="#000" fill="none"/>
  <path id="svg_19" d="m259.99839,423.99823l-1.33235,-167.99886l63.99984,0l0,-206.66616l150.6663,0l0,153.33296l49.33321,0l0,75.99981l-77.33314,-1.33333" opacity="NaN" stroke="#000" fill="none"/>
  <path id="svg_20" d="m605.33088,225.33205l85.3341,-1.3326l0,-179.99956l-75.99981,0l0,145.33298l-71.99982,0l0,363.99911l153.33296,0l0,-127.99969l-329.33253,-1.33333l0,-109.33307" opacity="NaN" stroke="#000" fill="none"/>
 </g>
</svg>